<svg xmlns="http://www.w3.org/2000/svg" height="48" viewBox="0 -960 960 960" width="48"><path d="M480-126.5 441-162q-104.534-96.193-173.303-166.153-68.768-69.961-109.517-124.806-40.749-54.844-56.964-99.416Q85-596.947 85-642.5q0-88.659 59.498-148.08Q203.995-850 291.5-850q56.288 0 104.644 27Q444.5-796 480-744.5q42-54 88.185-79.75Q614.371-850 668.629-850q87.38 0 146.876 59.366Q875-731.269 875-642.692q0 45.73-16.216 90.309-16.215 44.58-56.964 99.424-40.749 54.845-109.517 124.806Q623.534-258.193 519-162l-39 35.5Zm0-75.5q100.327-92.612 165.414-158.556Q710.5-426.5 748.75-476.25t53.5-88.732q15.25-38.982 15.25-77.416 0-65.602-41.858-107.852-41.859-42.25-106.671-42.25-51.77 0-95.121 31.5-43.35 31.5-71.35 89h-46q-27-56.5-70.707-88.5-43.707-32-94.603-32-64.973 0-106.832 42.093Q142.5-708.314 142.5-642.026q0 38.668 15.5 77.847 15.5 39.179 53.684 89.498 38.183 50.319 103.5 115.75Q380.5-293.5 480-202Zm0-295.5Z"/></svg>